/* XPM */
static char * calc_xpm[] = {
"32 32 56 1",
" 	c None",
".	c #010307",
"+	c #000000",
"@	c #02060E",
"#	c #02050D",
"$	c #000204",
"%	c #1964FB",
"&	c #1966FF",
"*	c #1147B2",
"=	c #030815",
"-	c #010914",
";	c #1144A9",
">	c #000102",
",	c #1554D3",
"'	c #1144AA",
")	c #0C3077",
"!	c #0B2D71",
"~	c #1451CB",
"{	c #051638",
"]	c #01060F",
"^	c #030A16",
"/	c #010813",
"(	c #01060E",
"_	c #04122D",
":	c #051434",
"<	c #04112B",
"[	c #000206",
"}	c #01050D",
"|	c #020917",
"1	c #000103",
"2	c #000207",
"3	c #000409",
"4	c #0E388B",
"5	c #030F25",
"6	c #082356",
"7	c #082357",
"8	c #030F24",
"9	c #0E388C",
"0	c #00030A",
"a	c #082254",
"b	c #0F3D99",
"c	c #020816",
"d	c #051532",
"e	c #051533",
"f	c #020815",
"g	c #09265E",
"h	c #01050C",
"i	c #030B1D",
"j	c #030C1E",
"k	c #051637",
"l	c #01050F",
"m	c #030915",
"n	c #1452CD",
"o	c #000205",
"p	c #010409",
"q	c #010306",
".++++++@                #++++++$",
"$%&&&&*=                -;&&&&&>",
"$%&&&&*=                -;&&&&&>",
"$%&,'')=                -!''~&&>",
"$%&{]^^                  //(_&&>",
"$%&:                        <&&>",
"$%&:  [}||1   .||.   1||}2  <&&>",
"$%&:  34&&5   6&&7   8&&90  <&&>",
"$%&:  34&&5   6&&7   8&&90  <&&>",
"$%&:  3abbc   dbbe   fbba0  <&&>",
"$%&:   @@@0   #@@#   0@@@   <&&>",
"$%&:                        <&&>",
"$%&:                        <&&>",
"$%&:                        <&&>",
"$%&:  3dggh   iggj   hggd3  <&&>",
"$%&:  34&&5   6&&7   8&&90  <&&>",
"$%&:  34&&5   6&&7   8&&90  <&&>",
"$%&:  3dggh   iggj   hggd3  <&&>",
"$%&:                        <&&>",
"$%&:                        <&&>",
"$%&:                        <&&>",
"$%&:   @@@0   #@@#   0@@@   <&&>",
"$%&:  3abbc   dbbe   fbba0  <&&>",
"$%&:  34&&5   6&&7   8&&90  <&&>",
"$%&:  34&&5   6&&7   8&&90  <&&>",
"$%&:  [}||1   .||.   1||}2  <&&>",
"$%&:                        <&&>",
"$%&klmm                  //(_&&>",
"$%&n'')=                -!''~&&>",
"$%&&&&*=                -;&&&&&>",
"$%&&&&*=                -;&&&&&>",
"opppppq]                #++++++$"};
