/* XPM */
static char * calc_xpm[] = {
"32 32 282 2",
"  	c None",
". 	c #030C1D",
"+ 	c #05112D",
"@ 	c #051129",
"# 	c #061129",
"$ 	c #071229",
"% 	c #08142C",
"& 	c #0A152E",
"* 	c #0B162E",
"= 	c #0A1426",
"- 	c #0C1527",
"; 	c #0F192E",
"> 	c #101A2E",
", 	c #111B2E",
"' 	c #121C2E",
") 	c #111827",
"! 	c #121826",
"~ 	c #151E2E",
"{ 	c #171E2E",
"] 	c #181E2C",
"^ 	c #171E29",
"/ 	c #181E29",
"( 	c #191F29",
"_ 	c #1D212D",
": 	c #13161D",
"< 	c #030C1C",
"[ 	c #1044AB",
"} 	c #1966FF",
"| 	c #1B67FF",
"1 	c #226CFF",
"2 	c #2870FF",
"3 	c #2F75FF",
"4 	c #3679FF",
"5 	c #3C7EFF",
"6 	c #4382FF",
"7 	c #4A86FF",
"8 	c #508BFF",
"9 	c #578FFF",
"0 	c #5E94FF",
"a 	c #6498FF",
"b 	c #6B9CFF",
"c 	c #72A1FF",
"d 	c #78A5FF",
"e 	c #7FAAFF",
"f 	c #86AEFF",
"g 	c #8CB3FF",
"h 	c #93B7FF",
"i 	c #9ABBFF",
"j 	c #6B80AA",
"k 	c #12161D",
"l 	c #040D1F",
"m 	c #206BFF",
"n 	c #266FFF",
"o 	c #2D73FF",
"p 	c #3478FF",
"q 	c #3A7CFF",
"r 	c #4181FF",
"s 	c #4885FF",
"t 	c #4E89FF",
"u 	c #558EFF",
"v 	c #5C92FF",
"w 	c #6297FF",
"x 	c #699BFF",
"y 	c #70A0FF",
"z 	c #76A4FF",
"A 	c #7DA8FF",
"B 	c #84ADFF",
"C 	c #8AB1FF",
"D 	c #91B6FF",
"E 	c #98BAFF",
"F 	c #13181F",
"G 	c #1964FA",
"H 	c #0F409E",
"I 	c #0C2E72",
"J 	c #0B2C6E",
"K 	c #0D2D6E",
"L 	c #0F2F6E",
"M 	c #12316E",
"N 	c #15336E",
"O 	c #19356E",
"P 	c #1B366D",
"Q 	c #1E386D",
"R 	c #213B6E",
"S 	c #243D6E",
"T 	c #263F6E",
"U 	c #2A406E",
"V 	c #2D426E",
"W 	c #2F446E",
"X 	c #344972",
"Y 	c #4D69A0",
"Z 	c #7FA9FA",
"` 	c #88B0FF",
" .	c #8FB4FF",
"..	c #13161F",
"+.	c #0C2F76",
"@.	c #02060E",
"#.	c #060A0E",
"$.	c #384E77",
"%.	c #80AAFF",
"&.	c #86AFFF",
"*.	c #12161F",
"=.	c #04122C",
"-.	c #141C2C",
";.	c #77A5FF",
">.	c #7EA9FF",
",.	c #10151F",
"'.	c #041128",
").	c #111929",
"!.	c #6E9FFF",
"~.	c #75A3FF",
"{.	c #0F141F",
"].	c #04122B",
"^.	c #111A2C",
"/.	c #6699FF",
"(.	c #6D9DFF",
"_.	c #0E141F",
":.	c #0C2D71",
"<.	c #274073",
"[.	c #5D93FF",
"}.	c #0D131F",
"|.	c #1964FB",
"1.	c #0E3A92",
"2.	c #0A2B6B",
"3.	c #0A2A69",
"4.	c #0A2762",
"5.	c #092459",
"6.	c #0B2559",
"7.	c #0D2759",
"8.	c #0F2859",
"9.	c #112959",
"0.	c #142B59",
"a.	c #172C59",
"b.	c #254585",
"c.	c #4D87FB",
"d.	c #5B92FF",
"e.	c #0C131F",
"f.	c #1D69FF",
"g.	c #246DFF",
"h.	c #2B72FF",
"i.	c #3176FF",
"j.	c #387BFF",
"k.	c #3F7FFF",
"l.	c #4583FF",
"m.	c #4C88FF",
"n.	c #538CFF",
"o.	c #0B121F",
"p.	c #1B68FF",
"q.	c #2970FF",
"r.	c #3D7EFF",
"s.	c #4A87FF",
"t.	c #09101F",
"u.	c #0D327E",
"v.	c #030E25",
"w.	c #1453D0",
"x.	c #276FFF",
"y.	c #2D74FF",
"z.	c #3B7CFF",
"A.	c #05112C",
"B.	c #0D3482",
"C.	c #1E69FF",
"D.	c #256EFF",
"E.	c #3277FF",
"F.	c #397BFF",
"G.	c #080F1F",
"H.	c #1864F9",
"I.	c #165BE3",
"J.	c #030E22",
"K.	c #092457",
"L.	c #1860F1",
"M.	c #175EEB",
"N.	c #1658DD",
"O.	c #175FEE",
"P.	c #1B64F4",
"Q.	c #236CFF",
"R.	c #2971FF",
"S.	c #3075FF",
"T.	c #070F1F",
"U.	c #0B2E74",
"V.	c #040C20",
"W.	c #030C1E",
"X.	c #020916",
"Y.	c #03091A",
"Z.	c #030D21",
"`.	c #030D1F",
" +	c #1451CA",
".+	c #1556D8",
"++	c #020A1A",
"@+	c #030B1E",
"#+	c #216BFF",
"$+	c #2770FF",
"%+	c #060E1F",
"&+	c #092254",
"*+	c #030D1E",
"=+	c #020816",
"-+	c #040B1A",
";+	c #030A18",
">+	c #1249B6",
",+	c #1249B9",
"'+	c #030918",
")+	c #040D22",
"!+	c #040B1E",
"~+	c #020812",
"{+	c #030C1F",
"]+	c #081F4E",
"^+	c #1F6AFF",
"/+	c #050D1F",
"(+	c #1450C8",
"_+	c #124BBB",
":+	c #071D48",
"<+	c #134DC0",
"[+	c #165AE0",
"}+	c #1554D3",
"|+	c #134EC3",
"1+	c #1863F7",
"2+	c #031027",
"3+	c #0B2E72",
"4+	c #020918",
"5+	c #124ABA",
"6+	c #0F3990",
"7+	c #061739",
"8+	c #1557D9",
"9+	c #0F3C93",
"0+	c #04132F",
"a+	c #1454D1",
"b+	c #0C317B",
"c+	c #030D20",
"d+	c #1659DF",
"e+	c #0B2A69",
"f+	c #1554D2",
"g+	c #031026",
"h+	c #0A2C6C",
"i+	c #030A1A",
"j+	c #0C2F75",
"k+	c #051027",
"l+	c #04132E",
"m+	c #1658DC",
"n+	c #071A42",
"o+	c #134DC1",
"p+	c #02060F",
"q+	c #124ABB",
"r+	c #071E49",
"s+	c #0F3E9B",
"t+	c #030E21",
"u+	c #082152",
"v+	c #010712",
"w+	c #1147B0",
"x+	c #1556D6",
"y+	c #1148B5",
"z+	c #0E3A8F",
"A+	c #030B1A",
"B+	c #010813",
"C+	c #020C1C",
"D+	c #1555D5",
"E+	c #040D20",
"F+	c #020B1B",
"G+	c #041431",
"H+	c #061637",
"I+	c #1861F3",
"J+	c #030F24",
"K+	c #1144AA",
"L+	c #040C1E",
"M+	c #06183D",
"N+	c #134FC5",
"O+	c #1041A1",
"P+	c #144FC6",
"Q+	c #0E3685",
"R+	c #1862F4",
"S+	c #1860F0",
"T+	c #124CBC",
"U+	c #1861F2",
"V+	c #092255",
"W+	c #1966FE",
"X+	c #1044AA",
"Y+	c #030B1D",
"Z+	c #031029",
"`+	c #04122D",
" @	c #04122E",
".@	c #040F28",
"+@	c #030E24",
"@@	c #030F26",
"#@	c #03112A",
"$@	c #031028",
"        . + @ # $ % & * = - ; > , ' ) ! ~ { ] ^ / ( _ :         ",
"      < [ } } | 1 2 3 4 5 6 7 8 9 0 a b c d e f g h i j k       ",
"      l } } } } } m n o p q r s t u v w x y z A B C D E F       ",
"      l } } G H I J K L M N O P Q R S T U V W X Y Z `  ...      ",
"      l } } +.@.                                #.$.%.&.*.      ",
"      l } } =.                                    -.;.>.,.      ",
"      l } } '.                                    ).!.~.{.      ",
"      l } } ].                                    ^./.(._.      ",
"      l } } :.                                    <.[.a }.      ",
"      l } } |.1.2.3.3.3.3.4.5.5.5.5.6.7.8.9.0.a.b.c.u d.e.      ",
"      l } } } } } } } } } } } } } } } f.g.h.i.j.k.l.m.n.o.      ",
"      l } } } } } } } } } } } } } } } } p.1 q.3 4 r.6 s.t.      ",
"      l } } } } } u.v.w.} } } } } } } } } } m x.y.p z.r t.      ",
"      l } } } } } A.  B.} } } } } } } } } } } C.D.h.E.F.G.      ",
"      l } } } H.I.J.  K.L.} } } } } M.N.N.N.I.O.P.Q.R.S.T.      ",
"      l } } U.V.W.X.  Y.Z.`. +} } .+++W.W.W.W.W.@+J #+$+%+      ",
"      l } } &+*+=+      -+;+>+} } ,+'+)+!+~+~+~+{+]+} ^+/+      ",
"      l } } H.(+_+{+  :+<+[+} } } } }+_+_+_+_+_+|+1+} } l       ",
"      l } } } } } 2+  3+} } } } } } } } } } } } } } } } l       ",
"      l } } } } } 5.4+5+} } } } } } } } } } } } } } } } l       ",
"      l } } } } } } 1+} } } } } } } } } } } } } } } } } l       ",
"      l } } } } } } } } } } } } } } } } } } } } } } } } l       ",
"      l } } } 6+7+8+} 9+0+a+} } } } b+c+6+} d+e+f+} } } l       ",
"      l } } } g+  . h+i+  j+} } } } k+  l+m+J.  n+} } } l       ",
"      l } } } o+i+  p+  '.M.} } } } q+r+s+t+  ++o+} } } l       ",
"      l } } } } u+    v+w+} } } } } } x+J.  ++y+} } } } l       ",
"      l } } } z+A+  B+  C+D+} } } } }+E+  F+1.G+H+I+} } l       ",
"      l } } } J+  G+K+L+  B.} } } } M+  L+N+O+  @+ +} } l       ",
"      l } } } P+Q+R+} N.B.S+} } } } T+n+f+} U+V+e+W+} } l       ",
"      l } } } } } } } } } } } } } } } } } } } } } } } } l       ",
"      . [ } } } } } } } } } } } } } } } } } } } } } } X+.       ",
"        Y++ Z+Z+Z+`+ @ @.@+@ @ @ @ @v.@@ @ @ @#@Z+Z+$@.         "};
