/* XPM */
static char * moment_xpm[] = {
"32 32 51 1",
" 	c None",
".	c #0D0000",
"+	c #000000",
"@	c #0E0000",
"#	c #390000",
"$	c #060000",
"%	c #410000",
"&	c #F60000",
"*	c #090000",
"=	c #100000",
"-	c #460000",
";	c #F80000",
">	c #FF0000",
",	c #530000",
"'	c #FB0000",
")	c #5F0000",
"!	c #FD0000",
"~	c #660000",
"{	c #FE0000",
"]	c #720000",
"^	c #7D0000",
"/	c #8C0000",
"(	c #990000",
"_	c #9E0000",
":	c #AB0000",
"<	c #0B0000",
"[	c #B00000",
"}	c #070000",
"|	c #4A0000",
"1	c #880000",
"2	c #040000",
"3	c #4B0000",
"4	c #B50000",
"5	c #0C0000",
"6	c #B10000",
"7	c #A60000",
"8	c #940000",
"9	c #850000",
"0	c #840000",
"a	c #6D0000",
"b	c #0F0000",
"c	c #670000",
"d	c #FC0000",
"e	c #5A0000",
"f	c #110000",
"g	c #FA0000",
"h	c #4D0000",
"i	c #470000",
"j	c #050000",
"k	c #3B0000",
"l	c #010000",
"                                ",
"                              .+",
"                             @#$",
"                            .%&*",
"                           =-;>*",
"                          =,'>>*",
"                         @)!>>>*",
"                        =~{>>>>*",
"                       @]>>>>>>*",
"                      .^>>>>>>>*",
"                     @/>>>>>>>>*",
"                    .(>>>>>>>>>*",
"                   @_>>>>>>>>>>*",
"                  @:>>>>>>>>>>>*",
"                 <[>>>>>>>>>>>>*",
"                }|11111111111112",
"211111111111113}                ",
"$>>>>>>>>>>>>45                 ",
"$>>>>>>>>>>>6.                  ",
"$>>>>>>>>>>7@                   ",
"$>>>>>>>>>(5                    ",
"$>>>>>>>>8@                     ",
"$>>>>>>>9.                      ",
"$>>>>>>0@                       ",
"$>>>>{ab                        ",
"$>>>{cb                         ",
"$>>def                          ",
"$>gh=                           ",
"$;i@                            ",
"jkf                             ",
"l.                              ",
"+                               "};
