/* XPM */
static char * load_xpm[] = {
"32 32 18 1",
" 	c None",
".	c #FF1919",
"+	c #1965FF",
"@	c #1966FF",
"#	c #1A65FF",
"$	c #2961F0",
"%	c #E8202F",
"&	c #1866FF",
"*	c #1A66FF",
"=	c #1865FF",
"-	c #2E60EB",
";	c #EE1E29",
">	c #FF1A1A",
",	c #1A67FF",
"'	c #1967FF",
")	c #1B66FF",
"!	c #1867FF",
"~	c #FF1818",
"               ..               ",
"               ..               ",
"               ..               ",
"               ..               ",
"               ..               ",
"               ..               ",
"               ..               ",
"               ..               ",
"               ..               ",
"  +@@@@@#++@@@$.%@@@@@+&@@@@*+  ",
"  @=++++@@*+++-.;++++*@@++++@@  ",
"  @+    @@     ..     @@    @@  ",
"  @+    @@     ..     @@    @@  ",
"  @+    @@     ..     @@    @@  ",
"  @+    @@     ..     @@    @@  ",
"  @+    @@     ..     @@    @@  ",
"  @+    @@     ..     @@    @@  ",
"  @+    @@     ..     @@    @@  ",
"  @+    @@     ..     @@    @@  ",
"  @+    @@     ..     @@    @@  ",
"  @+    @@     ..     @@    @@  ",
"  @+    @@     ..     @@    @@  ",
"  @+    @@     ..     @@    @@  ",
"  @+    @@   >.....   @@    @@  ",
"  @+    @@    ....    @@    @@  ",
"*,=**  *+='   ....   )=+*  *!=!*",
" @@@@  @@@@   ~...   @@@@  @@@@,",
" @@@@  '@@@    ..>   @@@&  ,@@@ ",
" @@@    @@*    ..    =@@    @@@ ",
"  @*    &@     ..     @@    +@  ",
"  @      @      ~     @=     @  ",
"  *                          @  "};
