/* XPM */
static char * load_distributed_xpm[] = {
"32 32 99 2",
"  	c None",
". 	c #030D22",
"+ 	c #0E3B93",
"@ 	c #1144AA",
"# 	c #0E398F",
"$ 	c #1658DD",
"% 	c #1966FF",
"& 	c #1556D6",
"* 	c #1860F0",
"= 	c #1452CC",
"- 	c #1555D5",
"; 	c #175EEA",
"> 	c #1861F2",
", 	c #0D3483",
"' 	c #030A17",
") 	c #030E26",
"! 	c #020611",
"~ 	c #1966FE",
"{ 	c #09255B",
"] 	c #030C1D",
"^ 	c #030917",
"/ 	c #0E388C",
"( 	c #0D337F",
"_ 	c #020C1E",
": 	c #092256",
"< 	c #0E3789",
"[ 	c #030918",
"} 	c #040D20",
"| 	c #165BE4",
"1 	c #0D398D",
"2 	c #020917",
"3 	c #030914",
"4 	c #020B1C",
"5 	c #01060F",
"6 	c #0A2863",
"7 	c #020916",
"8 	c #020A18",
"9 	c #020712",
"0 	c #01050F",
"a 	c #010815",
"b 	c #030D1F",
"c 	c #165AE1",
"d 	c #0E3687",
"e 	c #020B1D",
"f 	c #1862F6",
"g 	c #0A2966",
"h 	c #0E3C96",
"i 	c #1659DF",
"j 	c #030C1E",
"k 	c #0C317A",
"l 	c #031026",
"m 	c #1042A5",
"n 	c #1864F9",
"o 	c #020B1E",
"p 	c #04122D",
"q 	c #0C3078",
"r 	c #1965FD",
"s 	c #1450C8",
"t 	c #061637",
"u 	c #020A19",
"v 	c #1554D2",
"w 	c #030C1F",
"x 	c #030C1C",
"y 	c #134CBE",
"z 	c #092459",
"A 	c #165AE0",
"B 	c #06173B",
"C 	c #0B2A69",
"D 	c #124ABA",
"E 	c #020C1D",
"F 	c #081F4E",
"G 	c #0C3179",
"H 	c #1964FA",
"I 	c #081E49",
"J 	c #040C1E",
"K 	c #1760EF",
"L 	c #0F40A0",
"M 	c #1146AE",
"N 	c #020C1F",
"O 	c #041433",
"P 	c #020A1B",
"Q 	c #134CBD",
"R 	c #030F24",
"S 	c #07193F",
"T 	c #0E3A91",
"U 	c #04132F",
"V 	c #1659DE",
"W 	c #081F4D",
"X 	c #134DC1",
"Y 	c #030B1D",
"Z 	c #030D1E",
"` 	c #175CE6",
" .	c #041129",
"..	c #071E4C",
"+.	c #061B44",
"@.	c #082155",
"#.	c #01040B",
"$.	c #020815",
"%.	c #010307",
"                                                                ",
"                                                                ",
"                                                                ",
"    . + @ @ @ @ @ @ @ @ @ @ @ @ @ @ @ @ @ @ @ @ @ @ @ @ # .     ",
"    . $ % % % % % % % % % % % % % % % % % % % % % % % % & .     ",
"    . $ % * = = = = = = = = - % % ; = = = = = = = = > % & .     ",
"    . $ % , ' ) ) ) ) ) ) ) ! ~ % { ] ) ) ) ) ) ) ^ / % & .     ",
"    . $ % (                 _ ~ % :                 < % & .     ",
"    . $ % (                 _ ~ % :                 < % & .     ",
"    . $ % (                 _ ~ % :                 < % & .     ",
"    . $ % (                 _ ~ % :                 < % & .     ",
"    . $ % (                 _ ~ % :                 < % & .     ",
"    . $ % (                 _ ~ % :                 < % & .     ",
"    . $ % (                 _ ~ % :                 < % & .     ",
"    . $ % (                 _ ~ % :                 < % & .     ",
"    . $ % (                 _ ~ % :                 < % & .     ",
"    . $ % (                 _ ~ % :                 < % & .     ",
"    . $ % (                 _ ~ % :                 < % & .     ",
"    . $ % (                 _ ~ % :                 < % & .     ",
"    . $ % (                 _ ~ % :                 < % & .     ",
"    . $ % (                 _ ~ % :                 < % & .     ",
"[ } ! | % 1 2 }         3 4 5 ~ % 6 7 4       8 4 9 + % $ 0 4 a ",
"b c % % % % % d         e f % % % % % g         h % % % % % i j ",
"  k % % % % % l           m % % % % n o         p % % % % % q   ",
"  . r % % % s j           t % % % % @ u         b v % % % r w   ",
"  x y % % % z             b A % % % B             C % % % D E   ",
"    F % % f _               G % % | b             b H % % I     ",
"    J K % L                 . r % (               7 M % * N     ",
"      h % O                 P Q % R                 S % T       ",
"      U V w                   W X Y                 Z `  .      ",
"      b ..                    _ +.                    @.Z       ",
"        #.                      $.                    %.        "};
