/* XPM */
static char * load_momentum_2_xpm[] = {
"18 16 60 1",
" 	c None",
".	c #000F00",
"+	c #001000",
"@	c #003A00",
"#	c #000E00",
"$	c #001300",
"%	c #005301",
"&	c #008401",
"*	c #008901",
"=	c #006B01",
"-	c #002A00",
";	c #001100",
">	c #00C801",
",	c #007301",
"'	c #000900",
")	c #003500",
"!	c #00BC01",
"~	c #006801",
"{	c #002F00",
"]	c #002100",
"^	c #003F00",
"/	c #009201",
"(	c #00A101",
"_	c #001A00",
":	c #009801",
"<	c #00B101",
"[	c #001D00",
"}	c #000C00",
"|	c #003400",
"1	c #00B601",
"2	c #001E00",
"3	c #008301",
"4	c #002E00",
"5	c #00AF01",
"6	c #008001",
"7	c #007E01",
"8	c #004700",
"9	c #001C00",
"0	c #002900",
"a	c #009101",
"b	c #001200",
"c	c #001500",
"d	c #00B501",
"e	c #009001",
"f	c #004500",
"g	c #002D00",
"h	c #001400",
"i	c #002600",
"j	c #003200",
"k	c #001F00",
"l	c #002000",
"m	c #00AE01",
"n	c #008201",
"o	c #001700",
"p	c #001900",
"q	c #008A01",
"r	c #00A601",
"s	c #003900",
"t	c #009D01",
"u	c #007B01",
"        .+        ",
" .@#  $%&*=-+     ",
" ;>,')!~{]^/(_    ",
" ;>>:<[}   +|12   ",
" ;>>>3}      45+  ",
" ;>>>>6.     .78  ",
" +&&&&&9      0ab ",
"  +++++       c1b ",
"              cd; ",
"              -eb ",
"             #6f  ",
"             g5+  ",
"    hi.    .j1k   ",
"    lmnjop|qr[    ",
"     +s7ttu|.     ",
"       #hh}       "};
