/* XPM */
static char * load_distributed_xpm[] = {
"32 32 8 1",
" 	c None",
".	c #1966FF",
"+	c #1866FF",
"@	c #1A66FF",
"#	c #1A67FF",
"$	c #1965FF",
"%	c #1A65FF",
"&	c #1967FF",
"                                ",
"                                ",
"                                ",
"  ...........................+  ",
"  ............................  ",
"  ............................  ",
"  ...@        #..@        @...  ",
"  ...$         ...        $...  ",
"  ...$         ...        $...  ",
"  ...$         ...        $...  ",
"  ...$         ...        $...  ",
"  ...$         ...        $...  ",
"  ...$         ...        $...  ",
"  ...$         ...        $...  ",
"  ...$         ...        $...  ",
"  ...$         ...        $...  ",
"  ...$         ...        $...  ",
"  ...$         ...        $...  ",
"  ...$         ...        $...  ",
"  ...$         ...        $...  ",
"  ...$         ...        $...  ",
"  %...        &..&        %..@  ",
"$......$    #.......    $......#",
" ......      ......$     ...... ",
" +.....      &.....      ...... ",
"  ....$       ....$      $....  ",
"  @...        ....        ....  ",
"  $..+        #..@        ...#  ",
"   ..          ...         ..   ",
"   ..          ..          ..   ",
"   $$           +          $.   ",
"                                "};
