/* XPM */
static char * load_nodal_xpm[] = {
"32 32 4 1",
" 	c None",
".	c #FF1919",
"+	c #FF1A1A",
"@	c #FF1818",
"              ....              ",
"              ....              ",
"              ....              ",
"              ....              ",
"              ....              ",
"              ....              ",
"              ....              ",
"              ....              ",
"              ....              ",
"              ....              ",
"              ....              ",
"              ....              ",
"              ....              ",
"              ....              ",
"              ....              ",
"              ....              ",
"              ....              ",
"              ....              ",
"              ....              ",
"              ....              ",
"             .....              ",
"          ...........+          ",
"           ..........           ",
"           ..........           ",
"            ........            ",
"             ......             ",
"             .....+             ",
"              ....              ",
"              @...              ",
"               ..               ",
"               .@               ",
"                                "};
