/* XPM */
static char * material_xpm[] = {
"32 32 340 2",
"  	c None",
". 	c #020303",
"+ 	c #06080B",
"@ 	c #040506",
"# 	c #010102",
"$ 	c #07080B",
"% 	c #030305",
"& 	c #020203",
"* 	c #080B11",
"= 	c #2F3C57",
"- 	c #4E648E",
"; 	c #6680B4",
"> 	c #718BC0",
", 	c #758EC0",
"' 	c #7087B3",
") 	c #586A8D",
"! 	c #374257",
"~ 	c #0A0C10",
"{ 	c #020304",
"] 	c #000002",
"^ 	c #010203",
"/ 	c #172032",
"( 	c #5475B5",
"_ 	c #7BA6FC",
": 	c #81ACFF",
"< 	c #86AFFF",
"[ 	c #8BB2FF",
"} 	c #90B6FF",
"| 	c #95B9FF",
"1 	c #9ABCFF",
"2 	c #9FC0FF",
"3 	c #A0C0FF",
"4 	c #9EBEFC",
"5 	c #7188B4",
"6 	c #202632",
"7 	c #030304",
"8 	c #020202",
"9 	c #020507",
"0 	c #0A101B",
"a 	c #4769AD",
"b 	c #6D9DFE",
"c 	c #72A1FF",
"d 	c #77A5FF",
"e 	c #7CA8FF",
"f 	c #81ABFF",
"g 	c #90B5FF",
"h 	c #9FBFFF",
"i 	c #9FBFFE",
"j 	c #6B81AB",
"k 	c #10141A",
"l 	c #050607",
"m 	c #020407",
"n 	c #16233D",
"o 	c #568AED",
"p 	c #6297FF",
"q 	c #679AFF",
"r 	c #6C9EFF",
"s 	c #71A1FF",
"t 	c #76A4FF",
"u 	c #7BA8FF",
"v 	c #80ABFF",
"w 	c #85AEFF",
"x 	c #8AB2FF",
"y 	c #8FB5FF",
"z 	c #94B8FF",
"A 	c #94B2EC",
"B 	c #262D3C",
"C 	c #040508",
"D 	c #020307",
"E 	c #1C335D",
"F 	c #518AFA",
"G 	c #5890FF",
"H 	c #5D93FF",
"I 	c #6C9DFF",
"J 	c #7BA7FF",
"K 	c #8AB1FF",
"L 	c #99BBFF",
"M 	c #9EBFFF",
"N 	c #9DBCFA",
"O 	c #3A465C",
"P 	c #040507",
"Q 	c #020409",
"R 	c #0F1D38",
"S 	c #4683F9",
"T 	c #4D89FF",
"U 	c #528CFF",
"V 	c #5790FF",
"W 	c #5C93FF",
"X 	c #6196FF",
"Y 	c #669AFF",
"Z 	c #6B9DFF",
"` 	c #70A0FF",
" .	c #75A4FF",
"..	c #7AA7FF",
"+.	c #80AAFF",
"@.	c #8FB4FF",
"#.	c #ACC8FF",
"$.	c #E5EEFF",
"%.	c #F7F9FF",
"&.	c #EBF1FF",
"*.	c #BFD4FF",
"=.	c #272E3D",
"-.	c #050507",
";.	c #060D1C",
">.	c #3A76ED",
",.	c #4382FF",
"'.	c #4885FF",
").	c #578FFF",
"!.	c #6699FF",
"~.	c #75A3FF",
"{.	c #7FAAFF",
"].	c #84ADFF",
"^.	c #A3C2FF",
"/.	c #FDFEFF",
"(.	c #FFFFFF",
"_.	c #C3D7FF",
":.	c #000202",
"<.	c #010204",
"[.	c #2352AE",
"}.	c #387BFF",
"|.	c #3D7EFF",
"1.	c #4282FF",
"2.	c #4785FF",
"3.	c #4C88FF",
"4.	c #518CFF",
"5.	c #568FFF",
"6.	c #5B92FF",
"7.	c #6B9CFF",
"8.	c #7AA6FF",
"9.	c #DDE8FF",
"0.	c #F3F7FF",
"a.	c #6B80AA",
"b.	c #000205",
"c.	c #081733",
"d.	c #2E74FE",
"e.	c #3377FF",
"f.	c #4281FF",
"g.	c #518BFF",
"h.	c #6095FF",
"i.	c #6599FF",
"j.	c #6A9CFF",
"k.	c #6F9FFF",
"l.	c #74A3FF",
"m.	c #79A6FF",
"n.	c #F0F5FF",
"o.	c #A5C3FF",
"p.	c #1F2531",
"q.	c #000204",
"r.	c #194EB6",
"s.	c #2870FF",
"t.	c #2D74FF",
"u.	c #3277FF",
"v.	c #377AFF",
"w.	c #3C7EFF",
"x.	c #4784FF",
"y.	c #568EFF",
"z.	c #6598FF",
"A.	c #74A2FF",
"B.	c #F5F8FF",
"C.	c #9CBDFF",
"D.	c #020711",
"E.	c #1E68FC",
"F.	c #236DFF",
"G.	c #2D73FF",
"H.	c #3C7DFF",
"I.	c #4181FF",
"J.	c #4684FF",
"K.	c #4B87FF",
"L.	c #508BFF",
"M.	c #558EFF",
"N.	c #5A91FF",
"O.	c #5F95FF",
"P.	c #6498FF",
"Q.	c #699BFF",
"R.	c #6E9FFF",
"S.	c #98BAFF",
"T.	c #FEFFFF",
"U.	c #C0D5FF",
"V.	c #96BAFF",
"W.	c #9BBDFF",
"X.	c #9DBDFB",
"Y.	c #090B0E",
"Z.	c #000203",
"`.	c #082457",
" +	c #1966FF",
".+	c #1D69FF",
"++	c #236CFF",
"@+	c #3276FF",
"#+	c #4180FF",
"$+	c #508AFF",
"%+	c #5F94FF",
"&+	c #E9F0FF",
"*+	c #FEFEFF",
"=+	c #EFF5FF",
"-+	c #B9D0FF",
";+	c #8CB3FF",
">+	c #91B6FF",
",+	c #96B9FF",
"'+	c #353F54",
")+	c #01050B",
"!+	c #0E398F",
"~+	c #226CFF",
"{+	c #276FFF",
"]+	c #2C73FF",
"^+	c #3176FF",
"/+	c #3679FF",
"(+	c #3B7DFF",
"_+	c #4080FF",
":+	c #4583FF",
"<+	c #4A87FF",
"[+	c #4F8AFF",
"}+	c #548DFF",
"|+	c #5991FF",
"1+	c #5E94FF",
"2+	c #6398FF",
"3+	c #689BFF",
"4+	c #6D9EFF",
"5+	c #72A2FF",
"6+	c #9BBCFF",
"7+	c #58698C",
"8+	c #07090B",
"9+	c #010206",
"0+	c #1147B1",
"a+	c #1D68FF",
"b+	c #2C72FF",
"c+	c #3B7CFF",
"d+	c #6397FF",
"e+	c #6A82B0",
"f+	c #000102",
"g+	c #134DC1",
"h+	c #1C68FF",
"i+	c #216BFF",
"j+	c #266FFF",
"k+	c #2B72FF",
"l+	c #3075FF",
"m+	c #3579FF",
"n+	c #3A7CFF",
"o+	c #3F80FF",
"p+	c #4483FF",
"q+	c #4986FF",
"r+	c #4E8AFF",
"s+	c #538DFF",
"t+	c #5D94FF",
"u+	c #86AEFF",
"v+	c #708BC0",
"w+	c #010202",
"x+	c #266EFF",
"y+	c #3F7FFF",
"z+	c #4E89FF",
"A+	c #6C88C0",
"B+	c #1B67FF",
"C+	c #206BFF",
"D+	c #256EFF",
"E+	c #2A72FF",
"F+	c #2F75FF",
"G+	c #3478FF",
"H+	c #397CFF",
"I+	c #3E7FFF",
"J+	c #4886FF",
"K+	c #6296FF",
"L+	c #71A0FF",
"M+	c #5F7AB0",
"N+	c #040406",
"O+	c #0E398E",
"P+	c #2A71FF",
"Q+	c #397BFF",
"R+	c #485E8B",
"S+	c #06070B",
"T+	c #1A67FF",
"U+	c #1F6AFF",
"V+	c #246EFF",
"W+	c #2971FF",
"X+	c #2E74FF",
"Y+	c #3378FF",
"Z+	c #4D88FF",
"`+	c #5C92FF",
" @	c #2A3753",
".@	c #020710",
"+@	c #1964FB",
"@@	c #246DFF",
"#@	c #72A0FA",
"$@	c #07090E",
"%@	c #000104",
"&@	c #1248B5",
"*@	c #1E6AFF",
"=@	c #2970FF",
"-@	c #387AFF",
";@	c #4D6FB2",
">@	c #020204",
",@	c #051431",
"'@	c #1966FE",
")@	c #1E69FF",
"!@	c #5A92FF",
"~@	c #6497FE",
"{@	c #141D2F",
"]@	c #020305",
"^@	c #1145AC",
"/@	c #3F62A8",
"(@	c #030A1A",
"_@	c #175EEC",
":@	c #4584FF",
"<@	c #4D83EB",
"[@	c #080E19",
"}@	c #010207",
"|@	c #051738",
"1@	c #1864F9",
"2@	c #4984FA",
"3@	c #12213C",
"4@	c #030508",
"5@	c #010307",
"6@	c #09245C",
"7@	c #1964FA",
"8@	c #216CFF",
"9@	c #3076FF",
"0@	c #3E7DFA",
"a@	c #18305C",
"b@	c #06183B",
"c@	c #3170EB",
"d@	c #0D1E3C",
"e@	c #020308",
"f@	c #010407",
"g@	c #1144AA",
"h@	c #1B68FF",
"i@	c #256EFE",
"j@	c #1C4CA9",
"k@	c #040B19",
"l@	c #010408",
"m@	c #000000",
"n@	c #1248B3",
"o@	c #1348B2",
"p@	c #061430",
"q@	c #010205",
"r@	c #01060F",
"s@	c #082255",
"t@	c #0E388C",
"u@	c #1147B2",
"v@	c #134DC0",
"w@	c #0E388B",
"x@	c #082254",
"y@	c #01060E",
"                        . + @ # # @ $ .                         ",
"                  % & * = - ; > , ' ) ! ~ { %                   ",
"              ] ^ / ( _ : < [ } | 1 2 3 4 5 6 7 8               ",
"            9 0 a b c d e f < [ g | 1 h 3 3 i j k l             ",
"          m n o p q r s t u v w x y z 1 h 3 3 3 A B C           ",
"        D E F G H p q I s t J v w K y z L M 3 3 3 N O P         ",
"      Q R S T U V W X Y Z `  ...+.w K @.#.$.%.&.*.3 N =.-.      ",
"    ] ;.>.,.'.T U ).W X !.Z ` ~...{.].^./.(.(.(.(._.3 A k :.    ",
"    <.[.}.|.1.2.3.4.5.6.X !.7.` ~.8.{.9.(.(.(.(.(.0.3 3 a.{     ",
"  b.c.d.e.}.|.f.2.3.g.5.6.h.i.j.k.l.m.n.(.(.(.(.(.(.o.3 i p.%   ",
"  q.r.s.t.u.v.w.f.x.3.g.y.6.h.z.j.k.A.9.(.(.(.(.(.B.C.3 3 ' {   ",
"  D.E.F.s.G.u.v.H.I.J.K.L.M.N.O.P.Q.R.S.T.(.(.(.(.U.V.W.3 X.Y.  ",
"Z.`. +.+++s.G.@+v.H.#+J.K.$+M.N.%+P.Q.R.M &+*+=+-+;+>+,+W.3 '+. ",
")+!+ + +.+~+{+]+^+/+(+_+:+<+[+}+|+1+2+3+4+5+..e : < [ } | 6+7+8+",
"9+0+ + + +a+~+{+b+^+/+c+_+:+<+[+}+|+1+d+3+4+c d e f < [ g | e+@ ",
"f+g+ + + + +h+i+j+k+l+m+n+o+p+q+r+s+G t+p q r s t u f u+[ g v+w+",
"f+g+ + + + + +h+i+x+k+l+m+n+y+p+q+z+s+G H p q I s t J v w K A+w+",
"9+0+ + + + + + +B+C+D+E+F+G+H+I+,.J+T U V W K+q I L+t J +.w M+N+",
")+O+ + + + + + + +B+C+D+P+F+G+Q+I+,.'.T U ).W X !.Z ` ~...{.R+S+",
"Z.`. + + + + + + + +T+U+V+W+X+Y+}.|.1.'.Z+U ).`+X !.7.` ~.8. @& ",
"  .@+@ + + + + + + + +T+U+@@W+X+e.}.|.f.2.3.g.5.6.h.i.j.k.#@$@  ",
"  %@&@ + + + + + + + + + +*@F.=@X+e.-@|.f.x.3.g.y.6.h.z.j.;@>@  ",
"  Z.,@'@ + + + + + + + + + +)@F.s.G.u.v.H.I.J.K.L.M.!@O.~@{@]@  ",
"    q.^@ + + + + + + + + + + +)@++s.G.@+v.H.#+J.K.L.M.N./@>@    ",
"    ] (@_@ + + + + + + + + + + +.+~+{+]+^+/+(+_+:@<+[+<@[@]     ",
"      }@|@1@ + + + + + + + + + + +a+~+{+b+^+/+(+_+:+2@3@4@      ",
"        5@6@7@ + + + + + + + + + + +h+8@j+k+9@m+n+0@a@D         ",
"          5@b@_@ + + + + + + + + + + +h+i+j+k+l+c@d@e@          ",
"            f@(@g@'@ + + + + + + + + + +h@C+i@j@k@l@            ",
"              m@%@,@n@+@ + + + + + + + ++@o@p@q@]               ",
"                  b.q.r@s@t@u@v@v@0+w@x@y@q.b.                  ",
"                        Z.)+5@f+f+5@)+Z.                        "};
