/* XPM */
static char * profile (cópia)_xpm[] = {
"32 32 37 1",
" 	c None",
".	c #4A1700",
"+	c #6D2200",
"@	c #5F2209",
"#	c #321612",
"$	c #622000",
"%	c #FD4F00",
"&	c #FF5000",
"*	c #BC3D08",
"=	c #2C1310",
"-	c #331100",
";	c #ED4A00",
">	c #4F1C07",
",	c #3C1300",
"'	c #FE5000",
")	c #5F1E00",
"!	c #223572",
"~	c #BC3E08",
"{	c #FC4F00",
"]	c #481600",
"^	c #1966FF",
"/	c #322E52",
"(	c #BB3E08",
"_	c #EC4A00",
":	c #5D1D00",
"<	c #16244D",
"[	c #280D00",
"}	c #2E0E00",
"|	c #0C3078",
"1	c #000000",
"2	c #3B1300",
"3	c #4B1700",
"4	c #5E2109",
"5	c #2C0E00",
"6	c #311612",
"7	c #2A1310",
"8	c #5E1E00",
"                           .+@# ",
"                          $%&&*=",
"                         -;&&&&>",
"                         ,'&&&&)",
"                         !~&&&{]",
"                         ^/('_: ",
"                        ^^^<[}  ",
"                       ^^^|1    ",
"                      ^^^|1     ",
"                     ^^^|1      ",
"                    ^^^|1       ",
"                   ^^^|1        ",
"                  ^^^|1         ",
"                 ^^^|1          ",
"                ^^^|1           ",
"               ^^^|1            ",
"              ^^^|1             ",
"             ^^^|1              ",
"            ^^^|1               ",
"           ^^^|1                ",
"          ^^^|1                 ",
"         ^^^|1                  ",
"        ^^^|1                   ",
"       ^^^|1                    ",
"      ^^^|1                     ",
"  -2!^^^|1                      ",
" $;&~/^|1                       ",
"3%&&&~<1                        ",
"+&&&&'[                         ",
"4&&&&_5                         ",
"6*&&{:                          ",
" 7>8]                           "};
