<?xml version="1.0" encoding="UTF-8" standalone="no"?>
<!-- Created with Inkscape (http://www.inkscape.org/) -->

<svg
   width="32"
   height="32"
   viewBox="0 0 8.4666661 8.4666661"
   version="1.1"
   id="svg1"
   inkscape:version="1.4 (1:1.4+202410161351+e7c3feb100)"
   sodipodi:docname="member.svg"
   xml:space="preserve"
   xmlns:inkscape="http://www.inkscape.org/namespaces/inkscape"
   xmlns:sodipodi="http://sodipodi.sourceforge.net/DTD/sodipodi-0.dtd"
   xmlns="http://www.w3.org/2000/svg"
   xmlns:svg="http://www.w3.org/2000/svg"><sodipodi:namedview
     id="namedview1"
     pagecolor="#ffffff"
     bordercolor="#666666"
     borderopacity="1.0"
     inkscape:showpageshadow="2"
     inkscape:pageopacity="0.0"
     inkscape:pagecheckerboard="0"
     inkscape:deskcolor="#d1d1d1"
     inkscape:document-units="mm"
     inkscape:zoom="5.6568542"
     inkscape:cx="26.074563"
     inkscape:cy="40.216699"
     inkscape:window-width="1276"
     inkscape:window-height="991"
     inkscape:window-x="26"
     inkscape:window-y="23"
     inkscape:window-maximized="0"
     inkscape:current-layer="layer1" /><defs
     id="defs1"><filter
       inkscape:collect="always"
       style="color-interpolation-filters:sRGB"
       id="filter1"
       x="-0.090476089"
       y="-0.090476088"
       width="1.1809522"
       height="1.1809522"><feGaussianBlur
         inkscape:collect="always"
         stdDeviation="0.12417667"
         id="feGaussianBlur1" /></filter></defs><g
     inkscape:label="Camada 1"
     inkscape:groupmode="layer"
     id="layer1"><path
       sodipodi:type="star"
       style="fill:#1966ff;stroke:none;stroke-width:1.999;stroke-linecap:round;stroke-linejoin:round"
       id="path2-6"
       inkscape:flatsided="true"
       sodipodi:sides="3"
       sodipodi:cx="1.64261"
       sodipodi:cy="3.175"
       sodipodi:r1="0.73396069"
       sodipodi:r2="0.36698034"
       sodipodi:arg1="1.5707963"
       sodipodi:arg2="2.6179939"
       inkscape:rounded="0"
       inkscape:randomized="0"
       d="m 1.64261,3.9089606 -0.6356287,-1.100941 1.2712572,0 z"
       inkscape:transform-center-y="0.3029636"
       transform="matrix(1.1131363,0,0,1.6511153,1.3768884,7.2507281)" /><path
       sodipodi:type="star"
       style="fill:#ff1919;fill-opacity:1;stroke:none;stroke-width:1.999;stroke-linecap:round;stroke-linejoin:round;stroke-opacity:1"
       id="path2-5-2"
       inkscape:flatsided="true"
       sodipodi:sides="3"
       sodipodi:cx="1.64261"
       sodipodi:cy="3.175"
       sodipodi:r1="0.73396069"
       sodipodi:r2="0.36698034"
       sodipodi:arg1="1.5707963"
       sodipodi:arg2="2.6179939"
       inkscape:rounded="0"
       inkscape:randomized="0"
       d="m 1.64261,3.9089606 -0.6356287,-1.100941 1.2712572,0 z"
       inkscape:transform-center-y="0.41820236"
       transform="matrix(1.2731067,0,0,2.2791556,3.7844249,5.3243973)" /><path
       style="mix-blend-mode:normal;fill:none;stroke:#000000;stroke-width:0.729;stroke-linecap:round;stroke-linejoin:miter;stroke-dasharray:none;stroke-opacity:1;filter:url(#filter1)"
       d="M 8.1021666,0.7795247 0.77952465,8.1021667"
       id="path1" /><path
       style="fill:none;stroke:#1966ff;stroke-width:0.729;stroke-linecap:round;stroke-linejoin:miter;stroke-dasharray:none;stroke-opacity:1"
       d="M 7.8946543,0.57201238 0.57201233,7.8946543"
       id="path1-5" /><circle
       style="fill:#ff5000;fill-opacity:1;stroke:#000000;stroke-width:0.129;stroke-linecap:round;stroke-linejoin:round;stroke-dasharray:none;stroke-opacity:1"
       id="path2"
       cx="7.5953469"
       cy="0.87131983"
       r="0.80681986" /><circle
       style="fill:#ff5000;fill-opacity:1;stroke:#000000;stroke-width:0.129;stroke-linecap:round;stroke-linejoin:round;stroke-dasharray:none;stroke-opacity:1"
       id="path2-7"
       cx="0.87131983"
       cy="7.5953469"
       r="0.80681986" /><path
       style="fill:#000000;stroke-width:0.0383923"
       d="m 3.1649222,0.83235304 c 0.01855,0.00946 0.044363,0.031327 0.057362,0.048595 0.016504,0.021927 0.1725746,0.52809856 0.5173415,1.67785636 0.2715391,0.905552 0.4937076,1.65909 0.4937076,1.6745289 0,0.070432 -0.067593,0.1453327 -0.1399057,0.1550318 C 4.0619156,4.3925951 3.7345895,4.2977271 2.404286,3.8988209 1.2458262,3.5514445 0.74482071,3.3969508 0.72264661,3.3802589 c -0.068933,-0.05189 -0.0836,-0.1528066 -0.032033,-0.2203978 0.014695,-0.019262 0.1974577,-0.1476462 0.43751809,-0.3073434 L 1.5404132,2.5782521 1.1048599,2.1414602 C 0.63318251,1.6684403 0.64542741,1.6836905 0.66239701,1.5903901 0.66843701,1.5571831 0.71581101,1.5058131 1.0317535,1.1898694 1.3476969,0.87392604 1.3990679,0.82655234 1.4322747,0.82051284 1.5253827,0.80357684 1.5104467,0.79158484 1.983344,1.2629861 L 2.4201364,1.6983958 2.6944014,1.2861806 C 2.8561138,1.0431307 2.9823901,0.86349584 3.0021081,0.84845244 c 0.043099,-0.032882 0.1157989,-0.04007 0.1628141,-0.016098 z M 1.2571339,1.4201602 1.0491654,1.6283142 1.4976957,2.0778883 c 0.4827198,0.4838432 0.4726854,0.471543 0.456233,0.5592421 -0.01033,0.055067 -0.051547,0.09059 -0.2804024,0.2416724 C 1.3967777,3.0615018 1.204063,3.1939982 1.2085496,3.1984851 1.2144596,3.2043951 3.820061,3.9853118 3.823244,3.9821289 3.825844,3.9795489 3.0871426,1.5078991 3.0515191,1.4000024 L 3.0381271,1.3594444 2.803658,1.7109291 C 2.6746997,1.9042461 2.5569004,2.0720799 2.5418817,2.0838935 2.5083287,2.1102885 2.4578707,2.1205895 2.4074377,2.1113435 2.3740947,2.1052335 2.3136387,2.0487585 1.9223949,1.6582521 1.6765718,1.4128927 1.473117,1.2121132 1.4702726,1.2120755 1.4674326,1.212038 1.3715146,1.3056765 1.2571328,1.420161 Z m 3.8581174,1.6881525 c 0.076026,0.037464 0.113195,0.135888 0.078739,0.2084997 C 5.1847356,3.336314 5.0915637,3.4371199 4.986941,3.5408249 4.7829793,3.7429978 4.7683364,3.7524965 4.6847959,3.7368243 4.6368049,3.7278143 4.5719063,3.6629233 4.562903,3.6149311 4.547231,3.5313911 4.556723,3.5167481 4.7589022,3.3127861 4.8626077,3.2081635 4.9623138,3.115513 4.9804723,3.1068964 c 0.042381,-0.020111 0.092155,-0.019586 0.134779,0.0014 z m 0.325055,0.9751647 c 0.018549,0.00914 0.045977,0.032678 0.060947,0.052307 0.022234,0.029149 0.027218,0.046396 0.027218,0.094141 0,0.063143 -0.016891,0.095882 -0.069917,0.1355011 -0.026531,0.019823 -0.043492,0.021104 -0.3168727,0.023929 -0.3237118,0.00336 -0.3362385,0.00118 -0.3883282,-0.067111 -0.039079,-0.051236 -0.039079,-0.1354092 0,-0.1866451 0.050837,-0.066649 0.064891,-0.069232 0.3754137,-0.068973 0.2363863,1.953e-4 0.2828392,0.0027 0.3115392,0.016851 z m -0.6521741,0.64911 c 0.017415,0.00859 0.1164309,0.1011375 0.2200349,0.2056586 0.2019745,0.2037616 0.211486,0.2184288 0.1958155,0.3019595 -0.00901,0.047991 -0.073901,0.1128899 -0.1218929,0.1218931 -0.08354,0.015673 -0.098184,0.00618 -0.3021451,-0.1959994 C 4.6753219,5.0623938 4.58215,4.9615885 4.5728957,4.9420869 4.5120507,4.8138674 4.6603327,4.6695392 4.7881322,4.7325874 Z M 3.489977,4.7335842 C 3.566003,4.7710482 3.603172,4.8694722 3.568716,4.9420839 3.5594612,4.9615855 3.4662893,5.0623912 3.3616667,5.1660962 3.1577052,5.3682691 3.1430621,5.3777678 3.0595217,5.3620956 3.0115307,5.3530856 2.9466318,5.2881946 2.9376286,5.2402025 2.9219556,5.1566625 2.9314486,5.1420185 3.133628,4.9380576 3.2373335,4.833435 3.3370395,4.7407845 3.355198,4.7321679 c 0.042381,-0.020111 0.092155,-0.019586 0.134779,0.0014 z m 0.6501098,0.1619545 c 0.018551,0.00946 0.045977,0.033255 0.060947,0.052883 l 0.02722,0.035688 v 0.3022452 c 0,0.2894222 -8.897e-4,0.3034353 -0.020943,0.3302971 -0.039597,0.053034 -0.072347,0.069939 -0.135501,0.069939 -0.047821,0 -0.06498,-0.00497 -0.094326,-0.027362 -0.06655,-0.05076 -0.069205,-0.065106 -0.069205,-0.3738786 0,-0.3078381 0.00281,-0.3232309 0.067885,-0.3728714 0.044229,-0.033735 0.1163622,-0.041189 0.163923,-0.01694 z"
       id="path3" /></g></svg>
