/* XPM */
static char * calc (cópia)_xpm[] = {
"32 32 90 1",
" 	c None",
".	c #0E0101",
"+	c #010000",
"@	c #000000",
"#	c #080000",
"$	c #120202",
"%	c #0C0101",
"&	c #270404",
"*	c #280404",
"=	c #260404",
"-	c #180202",
";	c #950F0F",
">	c #110101",
",	c #100101",
"'	c #960F0F",
")	c #170202",
"!	c #0B0101",
"~	c #F01818",
"{	c #080101",
"]	c #EE1717",
"^	c #0A0101",
"/	c #020000",
"(	c #FE1919",
"_	c #540808",
":	c #060101",
"<	c #F11818",
"[	c #BD1313",
"}	c #0F0101",
"|	c #BE1313",
"1	c #E01616",
"2	c #FD1919",
"3	c #DF1616",
"4	c #0D0101",
"5	c #D01414",
"6	c #FF1919",
"7	c #820C0C",
"8	c #0F0202",
"9	c #0D0202",
"0	c #CF1414",
"a	c #140101",
"b	c #BF1313",
"c	c #E41616",
"d	c #E21616",
"e	c #140202",
"f	c #140303",
"g	c #AE1111",
"h	c #3F0606",
"i	c #AD1111",
"j	c #120101",
"k	c #9E0F0F",
"l	c #AC1111",
"m	c #0F204E",
"n	c #75203F",
"o	c #D02948",
"p	c #CC2948",
"q	c #131838",
"r	c #111736",
"s	c #CB2847",
"t	c #74203F",
"u	c #1966FF",
"v	c #131B42",
"w	c #842241",
"x	c #832140",
"y	c #2C0404",
"z	c #2B0404",
"A	c #C81414",
"B	c #4F0808",
"C	c #4E0707",
"D	c #DD1616",
"E	c #0B0000",
"F	c #6E0B0B",
"G	c #0C0000",
"H	c #ED1717",
"I	c #760B0B",
"J	c #750B0B",
"K	c #0E0202",
"L	c #E81717",
"M	c #EA1717",
"N	c #690A0A",
"O	c #6A0A0A",
"P	c #0C0202",
"Q	c #CA1414",
"R	c #1E0303",
"S	c #F71818",
"T	c #F81818",
"U	c #220303",
"V	c #5F0909",
"W	c #5E0909",
"X	c #520808",
"Y	c #DE1616",
".                              .",
"+                              +",
"@#                            #@",
"$%                            %$",
"&&                            *=",
"-;>                          ,')",
"!~{                          {]^",
"/(_                          _(/",
":<[}                        ,|~:",
"%1(-                        )234",
",5678                      9760>",
"ab6c{                      {d6|e",
"fg66h                      h66if",
"jk66lj                    jl66kj",
"mnoopq                    rsootm",
"uuuuuuuuuuuuuuuuuuuuuuuuuuuuuuuu",
"uuuuuuuuuuuuuuuuuuuuuuuuuuuuuuuu",
"      vwooooooooooooooooxv      ",
"       y6666666666666666z       ",
"       %A66666666666666A%       ",
"        B66666666666666C        ",
"        {D6666666666661{        ",
"        EF666666666666FG        ",
"         ^H6666666666H^         ",
"         9I6666666666JK         ",
"          ^L66666666M^          ",
"          GN66666666OP          ",
"           !Q666666Q!           ",
"            RS6666TU            ",
"            .V(66(W.            ",
"             4XYDX4             ",
"              E!!E              "};
