/* XPM */
static char * suport_xpm[] = {
"32 32 148 2",
"  	c None",
". 	c #000B00",
"+ 	c #001600",
"@ 	c #000900",
"# 	c #008800",
"$ 	c #0E950E",
"% 	c #000A00",
"& 	c #005300",
"* 	c #00AB00",
"= 	c #44CE50",
"- 	c #005200",
"; 	c #001900",
"> 	c #00A800",
", 	c #4ACA65",
"' 	c #2EC431",
") 	c #001A00",
"! 	c #008D00",
"~ 	c #38BD58",
"{ 	c #58D66E",
"] 	c #119A11",
"^ 	c #000700",
"/ 	c #005900",
"( 	c #28B449",
"_ 	c #4CC96F",
": 	c #4FD55A",
"< 	c #015801",
"[ 	c #001F00",
"} 	c #00A900",
"| 	c #1CAE38",
"1 	c #3DBC66",
"2 	c #55D172",
"3 	c #31C632",
"4 	c #001D00",
"5 	c #000800",
"6 	c #008F00",
"7 	c #11AB27",
"8 	c #2FB358",
"9 	c #46C26B",
"0 	c #5BD86F",
"a 	c #119F11",
"b 	c #005E00",
"c 	c #08AA15",
"d 	c #21AD47",
"e 	c #37B861",
"f 	c #4FCA70",
"g 	c #51D75A",
"h 	c #015D01",
"i 	c #002100",
"j 	c #01AA04",
"k 	c #14A931",
"l 	c #29B052",
"m 	c #3FBE67",
"n 	c #58D372",
"o 	c #33C934",
"p 	c #002300",
"q 	c #009300",
"r 	c #09A917",
"s 	c #1CAB3E",
"t 	c #31B45B",
"u 	c #48C56D",
"v 	c #5EDB71",
"w 	c #13A313",
"x 	c #006400",
"y 	c #0FA927",
"z 	c #23AD4A",
"A 	c #39BA63",
"B 	c #51CD71",
"C 	c #54D95B",
"D 	c #016301",
"E 	c #002700",
"F 	c #00AA00",
"G 	c #04AA0B",
"H 	c #16AA35",
"I 	c #2BB154",
"J 	c #42C069",
"K 	c #5AD673",
"L 	c #36CB36",
"M 	c #002800",
"N 	c #009700",
"O 	c #0BA91C",
"P 	c #1EAC42",
"Q 	c #33B55D",
"R 	c #4AC76E",
"S 	c #61DD71",
"T 	c #14A514",
"U 	c #006900",
"V 	c #11A92B",
"W 	c #25AF4D",
"X 	c #3BBA64",
"Y 	c #54CF71",
"Z 	c #58DD5D",
"` 	c #026902",
" .	c #002C00",
"..	c #06AA10",
"+.	c #18AA39",
"@.	c #2DB357",
"#.	c #44C16A",
"$.	c #5DD873",
"%.	c #37CC37",
"&.	c #002B00",
"*.	c #009800",
"=.	c #0CA920",
"-.	c #20AD45",
";.	c #35B75F",
">.	c #4DC96F",
",.	c #65E171",
"'.	c #14A914",
").	c #006E00",
"!.	c #01AB03",
"~.	c #13A92F",
"{.	c #27B050",
"].	c #3EBC66",
"^.	c #56D172",
"/.	c #5CE05D",
"(.	c #026E02",
"_.	c #002F00",
":.	c #08AA14",
"<.	c #1AAA3C",
"[.	c #2FB459",
"}.	c #46C36C",
"|.	c #60DB74",
"1.	c #39CE39",
"2.	c #003200",
"3.	c #009C00",
"4.	c #0EA924",
"5.	c #22AD48",
"6.	c #38B861",
"7.	c #4FCB70",
"8.	c #67E572",
"9.	c #17AE17",
"0.	c #000C00",
"a.	c #007200",
"b.	c #02AB06",
"c.	c #13AA2D",
"d.	c #29B050",
"e.	c #40BE68",
"f.	c #59D473",
"g.	c #5DE35D",
"h.	c #027802",
"i.	c #009400",
"j.	c #059609",
"k.	c #0F9D17",
"l.	c #1FAA24",
"m.	c #0E9F0E",
"n.	c #001200",
"o.	c #000D00",
"p.	c #000600",
"q.	c #00A000",
"                              . .                               ",
"                              + +                               ",
"                            @ # $ @                             ",
"                          % & * = - .                           ",
"                          ; > * , ' )                           ",
"                        @ ! * * ~ { ] ^                         ",
"                      % / * * * ( _ : < .                       ",
"                      [ } * * * | 1 2 3 4                       ",
"                    5 6 * * * * 7 8 9 0 a ^                     ",
"                  . b * * * * * c d e f g h %                   ",
"                  i } * * * * * j k l m n o p                   ",
"                5 q * * * * * * * r s t u v w 5                 ",
"              % x * * * * * * * * * y z A B C D %               ",
"              E F * * * * * * * * * G H I J K L M               ",
"            @ N * * * * * * * * * * * O P Q R S T 5             ",
"          % U * * * * * * * * * * * * * V W X Y Z ` %           ",
"           .* * * * * * * * * * * * * * ..+.@.#.$.%.&.          ",
"        @ *.* * * * * * * * * * * * * * * =.-.;.>.,.'.@         ",
"      % ).* * * * * * * * * * * * * * * * !.~.{.].^./.(.@       ",
"    5 _.* * * * * * * * * * * * * * * * * * :.<.[.}.|.1.2.5     ",
"    % 3.* * * * * * * * * * * * * * * * * * * 4.5.6.7.8.9.0.    ",
"  . a.* * * * * * * * * * * * * * * * * * * * b.c.d.e.f.g.h.@   ",
"^ M i.i.i.i.i.i.i.i.i.i.i.i.i.i.i.i.i.i.i.i.i.i.i.q j.k.l.m.E 5 ",
"% n.n.n.n.n.n.n.n.n.n.n.n.n.n.n.n.n.n.n.n.n.n.n.n.n.n.n.n.n.n.% ",
"                                                                ",
"% o.o.o.o.o.o.o.o.o.o.o.o.o.o.o.o.o.o.o.o.o.o.o.o.o.o.o.o.o.o.% ",
"p.i.i.i.i.i.i.i.i.i.i.i.i.i.i.i.i.i.i.i.i.i.i.i.i.i.i.i.i.i.i.p.",
"p.q.q.q.q.q.q.q.q.q.q.q.q.q.q.q.q.q.q.q.q.q.q.q.q.q.q.q.q.q.q.p.",
"5 % % % % % % % % % % % % % % % % % % % % % % % % % % % % % % 5 ",
"                                                                ",
"                                                                ",
"                                                                "};
